<?xml version="1.0" standalone="no"?>
<!DOCTYPE svg PUBLIC "-//W3C//DTD SVG 20010904//EN"
 "http://www.w3.org/TR/2001/REC-SVG-20010904/DTD/svg10.dtd">
<svg version="1.0" xmlns="http://www.w3.org/2000/svg"
 width="500.000000pt" height="500.000000pt" viewBox="0 0 500.000000 500.000000"
 preserveAspectRatio="xMidYMid meet">
<metadata>
Created by potrace 1.14, written by Peter Selinger 2001-2017
</metadata>
<g transform="translate(0.000000,500.000000) scale(0.100000,-0.100000)"
fill="#000000" stroke="none">
<path d="M2417 4803 c-1 -1 -36 -4 -77 -7 -88 -6 -195 -21 -195 -26 0 -1 -16
-3 -35 -5 -19 -2 -53 -9 -75 -15 -38 -10 -78 -20 -100 -24 -5 -1 -15 -5 -21
-8 -6 -4 -23 -9 -38 -12 -42 -8 -159 -47 -173 -59 -7 -5 -13 -6 -13 -2 0 4 -6
3 -12 -2 -7 -6 -30 -16 -51 -23 -48 -15 -285 -135 -307 -155 -9 -8 -22 -15
-28 -15 -7 0 -12 -4 -12 -10 0 -5 -7 -10 -15 -10 -7 0 -19 -8 -24 -17 -6 -10
-11 -14 -11 -10 0 8 -17 -4 -77 -53 -7 -6 -17 -10 -22 -10 -6 0 -14 -6 -18
-13 -4 -6 -26 -25 -48 -42 -22 -16 -44 -35 -48 -42 -4 -7 -15 -13 -22 -13 -8
0 -15 -7 -15 -15 0 -8 -4 -15 -9 -15 -22 0 -184 -173 -296 -318 -5 -7 -15 -18
-20 -25 -6 -7 -26 -37 -45 -67 -19 -30 -40 -61 -47 -68 -7 -7 -13 -20 -13 -28
0 -8 -4 -14 -10 -14 -5 0 -10 -5 -10 -11 0 -6 -9 -24 -21 -40 -11 -16 -17 -29
-12 -29 4 0 3 -4 -2 -8 -6 -4 -23 -33 -39 -64 -15 -32 -32 -58 -38 -58 -6 0
-9 -3 -5 -6 3 -4 0 -21 -8 -39 -7 -19 -11 -36 -7 -39 3 -3 0 -6 -6 -6 -7 0
-12 -9 -12 -20 0 -11 -5 -20 -10 -20 -6 0 -9 -3 -9 -7 1 -5 0 -11 -1 -15 -1
-5 -3 -11 -5 -15 -1 -5 -4 -15 -8 -23 -18 -46 -57 -175 -57 -189 0 -10 -3 -21
-7 -25 -6 -6 -10 -18 -17 -56 -1 -8 -5 -26 -9 -40 -4 -14 -9 -37 -12 -52 -3
-16 -7 -38 -9 -50 -13 -66 -28 -194 -30 -255 0 -18 -5 -33 -10 -33 -4 0 -4 -6
1 -12 5 -7 8 -24 6 -38 -10 -79 4 -332 23 -430 3 -14 7 -36 9 -50 27 -188 116
-456 209 -630 96 -181 213 -349 331 -479 67 -74 233 -231 244 -231 3 0 22 -14
41 -30 51 -43 35 -32 230 -159 42 -27 247 -131 259 -131 6 0 30 -9 54 -19 74
-33 127 -51 127 -43 0 4 4 2 8 -4 6 -9 164 -58 224 -69 13 -3 43 -9 68 -15 76
-17 213 -36 258 -36 23 1 42 -1 42 -4 0 -6 340 -3 385 4 17 2 55 7 86 10 31 4
67 9 80 11 13 3 35 7 49 10 14 3 36 7 50 11 14 3 36 7 50 10 14 2 57 13 95 24
39 12 77 23 85 25 8 2 16 4 18 5 1 2 5 3 10 4 49 11 261 103 273 119 3 4 16 9
27 10 12 1 22 4 22 7 0 3 26 19 58 34 67 34 260 160 316 208 110 92 276 257
276 274 0 3 12 16 26 29 15 14 23 25 18 25 -5 1 2 7 16 15 14 8 21 14 17 15
-5 0 -2 7 5 15 29 32 39 45 33 45 -3 0 5 12 19 27 14 15 23 30 21 34 -3 4 2 9
10 13 8 3 15 12 15 21 0 8 5 15 10 15 6 0 10 7 10 15 0 8 4 15 8 15 4 0 21 26
37 58 17 31 35 60 40 64 6 4 6 8 2 8 -5 0 1 13 12 29 11 15 18 31 14 35 -3 3
-1 6 5 6 7 0 12 7 12 15 0 8 5 15 11 15 5 0 8 4 4 10 -5 8 2 27 27 70 18 31
40 85 44 106 2 12 11 37 19 56 8 20 11 38 8 42 -4 3 -1 6 6 6 8 0 11 8 8 20
-3 11 -1 20 3 20 5 0 12 15 15 33 4 17 10 36 13 42 3 5 7 16 8 25 0 8 6 33 12
55 15 56 30 127 36 176 2 15 7 32 11 39 5 9 4 11 -3 6 -17 -10 -15 0 4 18 9 9
11 16 4 16 -6 0 -8 5 -4 11 4 7 9 28 11 48 1 20 5 54 8 76 10 89 4 433 -9 453
-4 7 -4 12 1 12 4 0 1 5 -7 10 -11 7 -11 10 -2 10 8 0 10 5 6 12 -4 6 -8 23
-10 37 -1 14 -3 26 -4 26 -3 0 -10 39 -12 72 -2 18 -6 33 -10 33 -4 0 -7 8 -7
18 -1 39 -5 52 -14 52 -5 0 -7 7 -4 15 4 8 2 17 -4 21 -6 3 -8 12 -5 19 2 7 0
17 -5 22 -5 5 -10 21 -11 36 -1 15 -6 27 -11 27 -4 0 -5 5 -2 10 3 6 1 10 -4
10 -6 0 -10 3 -10 8 1 4 0 9 -1 12 -3 10 -11 45 -12 58 -1 6 -5 12 -9 12 -4 0
-13 17 -20 38 -7 20 -19 48 -28 62 -9 13 -15 25 -14 27 4 8 -11 43 -19 43 -5
0 -7 4 -3 9 3 5 0 15 -7 23 -7 7 -14 20 -16 28 -2 8 -8 17 -13 21 -5 3 -11 15
-14 27 -2 12 -10 29 -18 36 -8 8 -20 28 -27 45 -7 17 -16 31 -21 31 -5 0 -9 9
-9 20 0 11 -4 20 -9 20 -6 0 -20 18 -32 40 -13 22 -26 40 -31 40 -4 0 -8 7 -8
15 0 9 -7 18 -15 21 -8 4 -12 10 -9 15 3 5 0 9 -5 9 -6 0 -11 7 -11 16 0 8 -4
13 -9 9 -5 -3 -12 4 -16 15 -3 11 -11 20 -17 20 -6 0 -8 3 -5 7 4 3 -7 19 -23
35 -16 15 -27 28 -25 28 9 0 -177 181 -230 225 -27 22 -60 50 -74 62 -45 39
-50 43 -58 43 -4 1 -24 14 -43 30 -19 17 -39 30 -45 30 -6 0 -17 9 -25 19 -7
11 -17 18 -22 15 -4 -3 -8 0 -8 5 0 6 -6 11 -14 11 -7 0 -19 7 -26 15 -7 9
-15 13 -18 10 -3 -3 -16 5 -30 17 -13 13 -25 22 -28 21 -6 -4 -38 9 -44 17 -8
11 -97 50 -114 50 -9 0 -16 5 -16 10 0 6 -9 10 -20 10 -11 0 -20 4 -20 8 0 5
-6 9 -12 9 -23 2 -203 68 -206 75 -2 5 -7 6 -12 3 -4 -2 -34 2 -66 11 -57 15
-76 19 -128 28 -14 2 -37 7 -53 10 -38 8 -105 16 -178 22 -60 5 -305 11 -308
7z"/>
</g>
</svg>
