<?xml version="1.0" standalone="no"?>
<!DOCTYPE svg PUBLIC "-//W3C//DTD SVG 20010904//EN"
 "http://www.w3.org/TR/2001/REC-SVG-20010904/DTD/svg10.dtd">
<svg version="1.0" xmlns="http://www.w3.org/2000/svg"
 width="260.000000pt" height="260.000000pt" viewBox="0 0 260.000000 260.000000"
 preserveAspectRatio="xMidYMid meet">
<metadata>
Created by potrace 1.14, written by Peter Selinger 2001-2017
</metadata>
<g transform="translate(0.000000,260.000000) scale(0.100000,-0.100000)"
fill="#000000" stroke="none">
<path d="M1145 2486 c-165 -28 -320 -82 -440 -154 -379 -226 -599 -616 -598
-1062 1 -373 161 -703 445 -918 213 -161 427 -238 693 -249 288 -11 552 71
777 240 329 247 524 744 453 1153 -77 439 -392 813 -796 943 -164 53 -383 72
-534 47z m-255 -466 l0 -40 -65 0 -65 0 0 -275 0 -275 50 0 50 0 0 -40 0 -40
-50 0 -50 0 0 -310 0 -310 65 0 65 0 0 -40 0 -40 -120 0 -120 0 0 705 0 705
120 0 120 0 0 -40z m333 3 c3 -21 11 -129 18 -240 7 -112 16 -203 19 -203 3 0
12 93 18 208 18 289 14 272 73 272 32 0 49 -4 49 -12 0 -7 -16 -166 -37 -352
l-37 -340 37 -340 c21 -188 37 -347 37 -353 0 -9 -17 -13 -49 -13 -59 0 -55
-17 -73 273 -6 114 -15 207 -18 207 -3 0 -12 -91 -19 -202 -7 -112 -15 -220
-18 -241 -6 -37 -6 -37 -54 -37 -44 0 -49 2 -49 23 0 12 16 170 37 351 l36
330 -37 335 c-20 185 -36 344 -36 354 0 14 9 17 49 17 48 0 48 0 54 -37z m549
-255 l3 -293 44 280 c24 154 46 286 49 293 4 13 102 18 102 5 0 -5 -25 -157
-56 -339 l-57 -331 56 -354 c32 -195 57 -360 57 -366 0 -9 -17 -13 -50 -13
-27 0 -50 1 -51 3 0 1 -22 144 -49 317 -26 173 -49 306 -50 295 0 -11 -2 -153
-4 -315 l-2 -295 -52 -3 -52 -3 0 705 0 706 55 0 55 0 2 -292z"/>
</g>
</svg>
